<svg width="1083" height="235" viewBox="0 0 1083 235" fill="none" xmlns="http://www.w3.org/2000/svg">
<path d="M939.837 228.052H911.291V76.2065H939.837V108.438H940.408C958.678 83.7272 988.652 70.4765 1016.34 70.4765C1051.17 70.4765 1082 90.5316 1082 132.432V226.62H1053.45V127.419C1053.45 93.3966 1032.33 77.9972 1007.21 77.9972C978.375 77.9972 945.547 96.2616 939.837 127.419V228.052Z" fill="#0A0A0B"/>
<path d="M871.555 57.584C861.849 57.584 854.141 48.2727 854.141 36.8126C854.141 26.0688 861.849 16.7575 871.555 16.7575C880.69 16.7575 888.398 26.0688 888.398 36.8126C888.398 48.2727 880.69 57.584 871.555 57.584ZM885.543 228.052H856.996V76.5647H885.543V228.052Z" fill="#0A0A0B"/>
<path d="M752.531 232.35C701.433 232.35 657.471 205.49 657.471 149.623C657.471 93.0386 693.725 70.8347 741.398 70.8347C761.095 70.8347 781.934 75.1322 802.773 82.2948V1H831.32V216.234C806.485 226.62 778.509 232.35 752.531 232.35ZM759.097 228.41C774.227 228.41 789.927 224.471 802.773 219.099V88.0248C786.502 80.8623 769.088 76.9229 753.673 76.9229C713.137 76.9229 686.017 101.275 686.017 145.325C686.017 192.956 715.135 228.41 759.097 228.41Z" fill="#0A0A0B"/>
<path d="M561.569 232.35C510.471 232.35 466.509 205.49 466.509 149.623C466.509 93.0386 502.763 70.8347 550.436 70.8347C570.133 70.8347 590.972 75.1322 611.812 82.2948V1H640.358V216.234C615.523 226.62 587.547 232.35 561.569 232.35ZM568.135 228.41C583.265 228.41 598.965 224.471 611.812 219.099V88.0248C595.54 80.8623 578.126 76.9229 562.711 76.9229C522.175 76.9229 495.055 101.275 495.055 145.325C495.055 192.956 524.173 228.41 568.135 228.41Z" fill="#0A0A0B"/>
<path d="M350.279 233.066C315.452 233.066 278.056 213.011 278.056 173.975C278.056 143.892 300.608 129.209 324.302 127.777C332.866 127.06 341.43 128.493 349.137 131.358V131C330.296 122.047 321.447 109.154 321.447 97.3359C321.447 81.5784 338.004 70.1183 363.411 70.1183C402.805 70.1183 455.046 94.1128 455.046 155.711V226.62H426.499V154.994C426.499 96.9778 384.535 77.9971 354.561 77.9971C336.006 77.9971 326.014 85.8759 326.014 96.6197C326.014 111.661 340.288 124.912 360.841 136.372C383.964 147.474 409.371 161.082 409.371 189.016C409.371 217.667 380.824 233.066 350.279 233.066ZM363.981 224.471C385.962 224.471 405.945 212.295 405.945 188.658C405.945 158.576 369.691 139.953 352.277 136.372C325.158 129.925 306.603 142.102 306.603 169.319C306.603 204.774 336.862 224.471 363.981 224.471Z" fill="#0A0A0B"/>
<path d="M261.017 226.62H232.47V1H261.017V226.62Z" fill="#0A0A0B"/>
<path d="M192.121 233.066C174.422 233.066 158.436 215.16 141.308 197.97C125.893 182.928 109.907 168.245 91.9222 168.245C71.0831 168.245 51.3858 183.645 33.6869 226.62H2L100.486 1H122.467L204.396 158.934C226.377 201.193 210.677 233.066 192.121 233.066ZM184.984 200.835C199.543 200.835 209.535 177.198 191.836 143.534L125.322 15.3251L51.6713 186.51H52.2422C65.3737 168.961 80.5035 161.083 96.7751 161.083C131.888 161.083 159.007 200.835 184.984 200.835Z" fill="#0A0A0B"/>
<path d="M939.837 228.552H940.337V228.052V127.464C946.012 96.6523 978.538 78.4972 1007.21 78.4972C1019.67 78.4972 1031.1 82.3155 1039.4 90.31C1047.71 98.2999 1052.95 110.515 1052.95 127.419V226.62V227.12H1053.45H1082H1082.5V226.62V132.432C1082.5 111.348 1074.74 95.715 1062.56 85.3607C1050.38 75.0161 1033.85 69.9765 1016.34 69.9765C988.673 69.9765 958.738 83.1336 940.337 107.696V76.2065V75.7065H939.837H911.291H910.791V76.2065V228.052V228.552H911.291H939.837ZM885.543 228.552H886.043V228.052V76.5647V76.0647H885.543H856.996H856.496V76.5647V228.052V228.552H856.996H885.543ZM802.773 0.5H802.273V1V81.5952C781.619 74.5563 760.956 70.3347 741.398 70.3347C717.493 70.3347 696.38 75.9006 681.235 88.6268C666.076 101.366 656.971 121.217 656.971 149.623C656.971 177.703 668.026 198.532 685.529 212.329C703.018 226.115 726.901 232.85 752.531 232.85C778.578 232.85 806.619 227.106 831.513 216.695L831.82 216.567V216.234V1V0.5H831.32H802.773ZM611.812 0.5H611.312V1V81.5952C590.657 74.5563 569.994 70.3347 550.436 70.3347C526.531 70.3347 505.418 75.9006 490.273 88.6268C475.114 101.366 466.009 121.217 466.009 149.623C466.009 177.703 477.064 198.532 494.568 212.329C512.056 226.115 535.939 232.85 561.569 232.85C587.616 232.85 615.657 227.106 640.551 216.695L640.858 216.567V216.234V1V0.5H640.358H611.812ZM455.046 227.12H455.546V226.62V155.711C455.546 124.75 442.408 103.207 424.304 89.4175C406.218 75.6418 383.198 69.6183 363.411 69.6183C350.639 69.6183 340.044 72.4979 332.626 77.4009C325.198 82.3102 320.947 89.2591 320.947 97.3359C320.947 108.562 328.747 120.605 345.035 129.474C338.434 127.552 331.353 126.686 324.266 127.278C312.333 128 300.661 132.06 291.962 139.758C283.251 147.466 277.556 158.796 277.556 173.975C277.556 193.675 287.001 208.59 300.815 218.564C314.616 228.529 332.778 233.566 350.279 233.566C365.627 233.566 380.504 229.698 391.56 222.199C402.629 214.69 409.871 203.533 409.871 189.016C409.871 174.872 403.429 164.36 394.111 156.01C384.813 147.678 372.625 141.475 361.072 135.928C350.823 130.212 342.172 124.067 336.087 117.499C330.001 110.929 326.514 103.972 326.514 96.6197C326.514 91.4236 328.922 86.9174 333.613 83.6915C338.32 80.4546 345.346 78.4971 354.561 78.4971C369.454 78.4971 387.317 83.2145 401.448 95.1219C415.563 107.016 425.999 126.12 425.999 154.994V226.62V227.12H426.499H455.046ZM352.162 136.858L352.169 136.86L352.177 136.861C360.807 138.636 374.153 144.154 385.332 152.97C396.512 161.786 405.445 173.834 405.445 188.658C405.445 200.318 400.524 209.127 392.9 215.033C385.262 220.95 374.886 223.971 363.981 223.971C337.061 223.971 307.103 204.427 307.103 169.319C307.103 155.825 311.697 146.153 319.558 140.631C327.43 135.1 338.687 133.655 352.162 136.858ZM261.017 227.12H261.517V226.62V1V0.5H261.017H232.47H231.97V1V226.62V227.12H232.47H261.017ZM33.6869 227.12H34.0217L34.1492 226.81C51.8285 183.883 71.4029 168.745 91.9222 168.745C100.775 168.745 109.169 172.359 117.298 177.881C125.427 183.403 133.247 190.803 140.956 198.325C142.442 199.816 143.921 201.315 145.394 202.807C152.394 209.899 159.268 216.863 166.19 222.356C174.569 229.005 183.102 233.566 192.121 233.566C201.717 233.566 210.415 225.343 213.943 211.975C217.478 198.579 215.875 179.918 204.84 158.703L122.911 0.769758L122.771 0.5H122.467H100.486H100.159L100.028 0.79997L1.54176 226.42L1.23618 227.12H2H33.6869ZM191.392 143.765L191.393 143.767C200.206 160.529 202.092 174.735 200.017 184.707C197.94 194.689 191.94 200.335 184.984 200.335C178.614 200.335 172.137 197.896 165.422 194.186C159.716 191.033 153.882 186.987 147.827 182.788C146.755 182.044 145.676 181.296 144.589 180.547C130.188 170.619 114.508 160.583 96.7751 160.583C80.79 160.583 65.931 168.109 52.9928 184.703L125.364 16.4921L191.392 143.765ZM853.641 36.8126C853.641 48.4606 861.492 58.084 871.555 58.084C881.056 58.084 888.898 48.449 888.898 36.8126C888.898 25.8803 881.046 16.2575 871.555 16.2575C861.503 16.2575 853.641 25.8688 853.641 36.8126ZM802.273 218.766C789.532 224.053 774.026 227.91 759.097 227.91C737.26 227.91 719.129 219.109 706.45 204.403C693.766 189.69 686.517 169.041 686.517 145.325C686.517 123.405 693.263 106.444 704.994 94.9627C716.727 83.4796 733.504 77.4229 753.673 77.4229C768.915 77.4229 786.141 81.2956 802.273 88.3514V218.766ZM611.312 218.766C598.57 224.053 583.065 227.91 568.135 227.91C546.298 227.91 528.167 219.109 515.488 204.403C502.804 189.69 495.555 169.041 495.555 145.325C495.555 123.405 502.301 106.444 514.032 94.9627C525.765 83.4796 542.542 77.4229 562.711 77.4229C577.953 77.4229 595.179 81.2956 611.312 88.3514V218.766Z" stroke="white" stroke-opacity="0.15"/>
<mask id="mask0_598_1415" style="mask-type:alpha" maskUnits="userSpaceOnUse" x="2" y="0" width="1080" height="233">
<rect x="1082" y="233" width="1080" height="232.07" transform="rotate(180 1082 233)" fill="white"/>
</mask>
<g mask="url(#mask0_598_1415)">
<path d="M939.837 228.052H911.291V76.2065H939.837V108.438H940.408C958.678 83.7272 988.652 70.4765 1016.34 70.4765C1051.17 70.4765 1082 90.5316 1082 132.432V226.62H1053.45V127.419C1053.45 93.3966 1032.33 77.9972 1007.21 77.9972C978.375 77.9972 945.547 96.2616 939.837 127.419V228.052Z" fill="url(#paint0_linear_598_1415)"/>
<path d="M871.555 57.584C861.849 57.584 854.141 48.2727 854.141 36.8126C854.141 26.0688 861.849 16.7575 871.555 16.7575C880.69 16.7575 888.398 26.0688 888.398 36.8126C888.398 48.2727 880.69 57.584 871.555 57.584ZM885.543 228.052H856.996V76.5647H885.543V228.052Z" fill="url(#paint1_linear_598_1415)"/>
<path d="M752.531 232.35C701.433 232.35 657.471 205.49 657.471 149.623C657.471 93.0386 693.725 70.8347 741.398 70.8347C761.095 70.8347 781.934 75.1322 802.773 82.2948V1H831.32V216.234C806.485 226.62 778.509 232.35 752.531 232.35ZM759.097 228.41C774.227 228.41 789.927 224.471 802.773 219.099V88.0248C786.502 80.8623 769.088 76.9229 753.673 76.9229C713.137 76.9229 686.017 101.275 686.017 145.325C686.017 192.956 715.135 228.41 759.097 228.41Z" fill="url(#paint2_linear_598_1415)"/>
<path d="M561.569 232.35C510.471 232.35 466.509 205.49 466.509 149.623C466.509 93.0386 502.763 70.8347 550.436 70.8347C570.133 70.8347 590.972 75.1322 611.812 82.2948V1H640.358V216.234C615.523 226.62 587.547 232.35 561.569 232.35ZM568.135 228.41C583.265 228.41 598.965 224.471 611.812 219.099V88.0248C595.54 80.8623 578.126 76.9229 562.711 76.9229C522.175 76.9229 495.055 101.275 495.055 145.325C495.055 192.956 524.173 228.41 568.135 228.41Z" fill="url(#paint3_linear_598_1415)"/>
<path d="M350.279 233.066C315.452 233.066 278.056 213.011 278.056 173.975C278.056 143.892 300.608 129.209 324.302 127.777C332.866 127.06 341.43 128.493 349.137 131.358V131C330.296 122.047 321.447 109.154 321.447 97.3359C321.447 81.5784 338.004 70.1183 363.411 70.1183C402.805 70.1183 455.046 94.1128 455.046 155.711V226.62H426.499V154.994C426.499 96.9778 384.535 77.9971 354.561 77.9971C336.006 77.9971 326.014 85.8759 326.014 96.6197C326.014 111.661 340.288 124.912 360.841 136.372C383.964 147.474 409.371 161.082 409.371 189.016C409.371 217.667 380.824 233.066 350.279 233.066ZM363.981 224.471C385.962 224.471 405.945 212.295 405.945 188.658C405.945 158.576 369.691 139.953 352.277 136.372C325.158 129.925 306.603 142.102 306.603 169.319C306.603 204.774 336.862 224.471 363.981 224.471Z" fill="url(#paint4_linear_598_1415)"/>
<path d="M261.017 226.62H232.47V1H261.017V226.62Z" fill="url(#paint5_linear_598_1415)"/>
<path d="M192.121 233.066C174.422 233.066 158.436 215.16 141.308 197.97C125.893 182.928 109.907 168.245 91.9222 168.245C71.0831 168.245 51.3858 183.645 33.6869 226.62H2L100.486 1H122.467L204.396 158.934C226.377 201.193 210.677 233.066 192.121 233.066ZM184.984 200.835C199.543 200.835 209.535 177.198 191.836 143.534L125.322 15.3251L51.6713 186.51H52.2422C65.3737 168.961 80.5035 161.083 96.7751 161.083C131.888 161.083 159.007 200.835 184.984 200.835Z" fill="url(#paint6_linear_598_1415)"/>
</g>
<defs>
<linearGradient id="paint0_linear_598_1415" x1="542" y1="1" x2="542" y2="233.066" gradientUnits="userSpaceOnUse">
<stop stop-color="#4B4B50"/>
<stop offset="1"/>
</linearGradient>
<linearGradient id="paint1_linear_598_1415" x1="542" y1="1" x2="542" y2="233.066" gradientUnits="userSpaceOnUse">
<stop stop-color="#4B4B50"/>
<stop offset="1"/>
</linearGradient>
<linearGradient id="paint2_linear_598_1415" x1="542" y1="1" x2="542" y2="233.066" gradientUnits="userSpaceOnUse">
<stop stop-color="#4B4B50"/>
<stop offset="1"/>
</linearGradient>
<linearGradient id="paint3_linear_598_1415" x1="542" y1="1" x2="542" y2="233.066" gradientUnits="userSpaceOnUse">
<stop stop-color="#4B4B50"/>
<stop offset="1"/>
</linearGradient>
<linearGradient id="paint4_linear_598_1415" x1="542" y1="1" x2="542" y2="233.066" gradientUnits="userSpaceOnUse">
<stop stop-color="#4B4B50"/>
<stop offset="1"/>
</linearGradient>
<linearGradient id="paint5_linear_598_1415" x1="542" y1="1" x2="542" y2="233.066" gradientUnits="userSpaceOnUse">
<stop stop-color="#4B4B50"/>
<stop offset="1"/>
</linearGradient>
<linearGradient id="paint6_linear_598_1415" x1="542" y1="1" x2="542" y2="233.066" gradientUnits="userSpaceOnUse">
<stop stop-color="#4B4B50"/>
<stop offset="1"/>
</linearGradient>
</defs>
</svg>
